<svg width="161" height="40" viewBox="0 0 161 40" fill="none" xmlns="http://www.w3.org/2000/svg">
<path d="M0 0H21.5C28.4036 0 34 5.59644 34 12.5C34 17.7909 30.7128 22.3141 26.0693 24.1385L34 40H22.5L16 26H10V40H0V18H19.5C21.9853 18 24 15.9853 24 13.5C24 11.0147 21.9853 9 19.5 9H0V0Z" fill="#506A85"/>
<path d="M40 0H68V9H50V15H68V24H50V31H68V40H40V0Z" fill="#506A85"/>
<path d="M75 0H103V9H85V15H103V24H85V31H103V40H75V0Z" fill="#506A85"/>
<path d="M110 40V0H120L136.5 22V0H146.5V40H136.5L120 17V40H110Z" fill="#506A85"/>
<rect x="152" y="31" width="9" height="9" fill="#506A85"/>
</svg>
