<svg width="644" height="583" viewBox="0 0 644 583" fill="none" xmlns="http://www.w3.org/2000/svg">
<path opacity="0.1" d="M219.113 -23.3433V267.963" stroke="url(#paint0_linear_34913_123)" stroke-width="0.890845"/>
<path opacity="0.1" d="M638.256 498.246H457.414" stroke="url(#paint1_linear_34913_123)" stroke-width="0.890845"/>
<path opacity="0.1" d="M207.977 284.444H6.64648" stroke="url(#paint2_linear_34913_123)" stroke-width="0.890845"/>
<path opacity="0.1" d="M638.256 391.345H6.64648" stroke="url(#paint3_linear_34913_123)" stroke-width="0.890845"/>
<path d="M335.367 69.3047H528.681V71.0864H335.367V69.3047Z" fill="url(#paint4_linear_34913_123)"/>
<path opacity="0.1" d="M112.211 -23.3433V605.593" stroke="url(#paint5_linear_34913_123)" stroke-width="0.890845"/>
<path d="M540.262 79.9948V168.188H538.48V79.9948H540.262Z" fill="#252628"/>
<path opacity="0.3" d="M188.378 70.6409H142.945C125.971 70.6409 112.211 84.401 112.211 101.375V146.808C112.211 163.782 125.971 177.542 142.945 177.542H188.378C205.352 177.542 219.112 163.782 219.112 146.808V101.375C219.112 84.401 205.352 70.6409 188.378 70.6409Z" stroke="white" stroke-width="0.890845"/>
<path opacity="0.3" d="M188.378 391.345H142.945C125.971 391.345 112.211 405.105 112.211 422.079V467.512C112.211 484.486 125.971 498.246 142.945 498.246H188.378C205.352 498.246 219.112 484.486 219.112 467.512V422.079C219.112 405.105 205.352 391.345 188.378 391.345Z" stroke="url(#paint6_linear_34913_123)" stroke-width="0.890845"/>
<path d="M539.371 80.8856V166.407" stroke="#51ABFF" stroke-width="2.22711" stroke-linecap="round" stroke-linejoin="round"/>
<path d="M336.258 177.097H528.68V178.879H336.258V177.097Z" fill="url(#paint7_linear_34913_123)"/>
<path d="M401.477 148.59H391.455L409.702 96.7587H421.294L439.566 148.59H429.544L415.7 107.388H415.296L401.477 148.59ZM401.807 128.268H429.139V135.809H401.807V128.268ZM454.502 149.375C452.038 149.375 449.82 148.935 447.846 148.058C445.888 147.164 444.337 145.848 443.189 144.111C442.059 142.373 441.493 140.23 441.493 137.682C441.493 135.489 441.898 133.675 442.708 132.241C443.498 130.827 444.64 129.642 446.023 128.799C447.423 127.938 449.001 127.289 450.756 126.851C452.56 126.389 454.396 126.059 456.248 125.863C458.526 125.626 460.373 125.416 461.79 125.23C463.207 125.028 464.237 124.724 464.878 124.32C465.536 123.897 465.865 123.248 465.865 122.37V122.219C465.865 120.313 465.3 118.836 464.169 117.79C463.039 116.744 461.41 116.221 459.285 116.221C457.041 116.221 455.261 116.71 453.945 117.688C452.645 118.667 451.768 119.823 451.313 121.156L442.759 119.941C443.433 117.579 444.547 115.604 446.099 114.019C447.651 112.416 449.55 111.218 451.794 110.425C454.038 109.615 456.518 109.21 459.234 109.21C461.107 109.21 462.971 109.43 464.827 109.868C466.638 110.288 468.36 111.025 469.914 112.045C471.449 113.041 472.681 114.398 473.609 116.119C474.554 117.841 475.026 119.992 475.026 122.573V148.59H466.219V143.25H465.915C465.359 144.33 464.574 145.342 463.562 146.287C462.567 147.214 461.31 147.965 459.791 148.539C458.289 149.096 456.526 149.375 454.502 149.375ZM456.88 142.643C458.719 142.643 460.314 142.28 461.663 141.554C463.013 140.812 464.051 139.833 464.777 138.619C465.513 137.425 465.899 136.048 465.891 134.645V130.065C465.604 130.301 465.114 130.52 464.422 130.722C463.747 130.924 462.988 131.102 462.144 131.254C461.301 131.405 460.466 131.541 459.639 131.658C458.813 131.777 458.096 131.878 457.488 131.962C456.121 132.148 454.898 132.451 453.818 132.874C452.738 133.295 451.886 133.886 451.262 134.645C450.637 135.387 450.326 136.349 450.326 137.53C450.326 139.217 450.941 140.491 452.173 141.352C453.404 142.212 454.974 142.643 456.88 142.643Z" fill="white"/>
<path d="M129.583 476.421H73.4598C60.6678 476.421 50.2979 486.791 50.2979 499.583C50.2979 512.375 60.6678 522.745 73.4598 522.745H129.583C142.375 522.745 152.745 512.375 152.745 499.583C152.745 486.791 142.375 476.421 129.583 476.421Z" fill="#2A2C2E" stroke="white" stroke-width="1.78169"/>
<path d="M86.832 504.224C85.6917 504.224 84.7875 503.903 84.1194 503.262C83.4513 502.612 83.1172 501.676 83.1172 500.456V498.264C83.1172 497.044 83.4513 496.113 84.1194 495.472C84.7875 494.821 85.6917 494.496 86.832 494.496C87.9545 494.496 88.8186 494.808 89.4244 495.432C90.039 496.055 90.3464 496.906 90.3464 497.984V498.064H88.9166V497.944C88.9166 497.311 88.7429 496.794 88.3954 496.394C88.0569 495.993 87.5358 495.792 86.832 495.792C86.1193 495.792 85.5626 496.011 85.1617 496.447C84.7608 496.875 84.5604 497.472 84.5604 498.238V500.483C84.5604 501.24 84.7608 501.837 85.1617 502.273C85.5626 502.71 86.1193 502.928 86.832 502.928C87.5358 502.928 88.0569 502.728 88.3954 502.327C88.7429 501.917 88.9166 501.4 88.9166 500.777V500.549H90.3464V500.736C90.3464 501.814 90.039 502.665 89.4244 503.289C88.8186 503.912 87.9545 504.224 86.832 504.224ZM91.9847 504.037V494.683H93.361V504.037H91.9847ZM95.4037 504.037V497.449H96.7801V504.037H95.4037ZM96.0986 496.554C95.8473 496.56 95.6033 496.469 95.4171 496.3C95.2389 496.122 95.1498 495.895 95.1498 495.619C95.1498 495.342 95.2389 495.12 95.4171 494.95C95.6042 494.772 95.8313 494.683 96.0986 494.683C96.3747 494.683 96.6019 494.772 96.7801 494.95C96.9582 495.12 97.0473 495.342 97.0473 495.619C97.0473 495.895 96.9582 496.122 96.7801 496.3C96.6019 496.469 96.3747 496.554 96.0986 496.554ZM101.843 504.224C101.175 504.224 100.591 504.086 100.092 503.81C99.5934 503.525 99.2014 503.128 98.9163 502.621C98.6402 502.104 98.5021 501.507 98.5021 500.83V500.67C98.5021 499.984 98.6402 499.387 98.9163 498.879C99.1925 498.362 99.5755 497.966 100.066 497.69C100.564 497.405 101.139 497.262 101.789 497.262C102.422 497.262 102.974 497.405 103.446 497.69C103.927 497.966 104.301 498.353 104.569 498.852C104.836 499.351 104.97 499.935 104.97 500.603V501.124H99.9052C99.923 501.703 100.115 502.166 100.48 502.514C100.854 502.852 101.317 503.021 101.869 503.021C102.386 503.021 102.774 502.906 103.032 502.674C103.299 502.442 103.504 502.175 103.647 501.872L104.783 502.46C104.658 502.71 104.475 502.972 104.235 503.249C104.003 503.525 103.696 503.756 103.313 503.944C102.93 504.131 102.44 504.224 101.843 504.224ZM99.9185 500.068H103.567C103.531 499.569 103.353 499.182 103.032 498.906C102.711 498.621 102.293 498.478 101.776 498.478C101.259 498.478 100.836 498.621 100.506 498.906C100.186 499.182 99.9898 499.569 99.9185 500.068ZM106.626 504.037V497.449H107.975V498.438H108.189C108.314 498.171 108.537 497.921 108.857 497.69C109.178 497.458 109.655 497.342 110.287 497.342C110.786 497.342 111.227 497.454 111.61 497.676C112.002 497.899 112.309 498.215 112.532 498.625C112.755 499.026 112.866 499.512 112.866 500.082V504.037H111.49V500.189C111.49 499.618 111.347 499.2 111.062 498.933C110.777 498.656 110.385 498.518 109.886 498.518C109.316 498.518 108.857 498.705 108.51 499.08C108.171 499.454 108.002 499.997 108.002 500.71V504.037H106.626ZM117.137 504.037C116.736 504.037 116.415 503.917 116.175 503.676C115.943 503.436 115.827 503.115 115.827 502.714V498.612H114.01V497.449H115.827V495.271H117.204V497.449H119.168V498.612H117.204V502.474C117.204 502.741 117.328 502.875 117.578 502.875H118.954V504.037H117.137Z" fill="white"/>
<path d="M336.259 70.1955H529.572M528.681 177.988H336.259M326.46 80.8856V166.407M333.586 60.3962H318.442C317.733 60.3962 317.054 60.6778 316.552 61.179C316.051 61.6802 315.77 62.36 315.77 63.0688V78.2131C315.77 78.9219 316.051 79.6017 316.552 80.1029C317.054 80.6041 317.733 80.8856 318.442 80.8856H333.586C334.295 80.8856 334.975 80.6041 335.476 80.1029C335.977 79.6017 336.259 78.9219 336.259 78.2131V63.0688C336.259 62.36 335.977 61.6802 335.476 61.179C334.975 60.6778 334.295 60.3962 333.586 60.3962ZM333.586 167.298H318.442C317.733 167.298 317.054 167.579 316.552 168.08C316.051 168.582 315.77 169.261 315.77 169.97V185.114C315.77 185.823 316.051 186.503 316.552 187.004C317.054 187.505 317.733 187.787 318.442 187.787H333.586C334.295 187.787 334.975 187.505 335.476 187.004C335.977 186.503 336.259 185.823 336.259 185.114V169.97C336.259 169.261 335.977 168.582 335.476 168.08C334.975 167.579 334.295 167.298 333.586 167.298ZM547.389 59.5054H532.245C531.536 59.5054 530.856 59.7869 530.355 60.2881C529.854 60.7893 529.572 61.4691 529.572 62.1779V77.3223C529.572 78.0311 529.854 78.7108 530.355 79.212C530.856 79.7132 531.536 79.9948 532.245 79.9948H547.389C548.098 79.9948 548.778 79.7132 549.279 79.212C549.78 78.7108 550.062 78.0311 550.062 77.3223V62.1779C550.062 61.4691 549.78 60.7893 549.279 60.2881C548.778 59.7869 548.098 59.5054 547.389 59.5054ZM547.389 167.298H532.245C531.536 167.298 530.856 167.579 530.355 168.08C529.854 168.582 529.572 169.261 529.572 169.97V185.114C529.572 185.823 529.854 186.503 530.355 187.004C530.856 187.505 531.536 187.787 532.245 187.787H547.389C548.098 187.787 548.778 187.505 549.279 187.004C549.78 186.503 550.062 185.823 550.062 185.114V169.97C550.062 169.261 549.78 168.582 549.279 168.08C548.778 167.579 548.098 167.298 547.389 167.298Z" stroke="#51ABFF" stroke-width="2.22711" stroke-linecap="round" stroke-linejoin="round"/>
<path d="M161.944 469.397C162.008 469.102 161.996 468.796 161.909 468.507C161.822 468.218 161.663 467.956 161.447 467.745C161.231 467.535 160.965 467.382 160.674 467.302C160.383 467.222 160.077 467.218 159.784 467.289L146.694 470.454C145.793 470.671 145.696 471.915 146.552 472.269C151.402 474.278 155.241 478.26 157.126 483.159C157.473 484.059 158.787 483.987 158.991 483.044L161.944 469.397Z" fill="white" stroke="#222943" stroke-width="0.890845" stroke-linecap="round" stroke-linejoin="round"/>
<mask id="mask0_34913_123" style="mask-type:alpha" maskUnits="userSpaceOnUse" x="539" y="-24" width="2" height="630">
<path opacity="0.1" fill-rule="evenodd" clip-rule="evenodd" d="M539.371 605.593V-23.3433H540.262V605.593H539.371Z" fill="url(#paint8_linear_34913_123)"/>
</mask>
<g mask="url(#mask0_34913_123)">
<path d="M527.791 60.3961H548.28V-29.5792H527.791V60.3961ZM527.791 645.681H548.28V187.787H527.791V645.681Z" fill="#D9D9D9"/>
</g>
<path opacity="0.3" d="M509.083 284.444H463.65C446.676 284.444 432.916 298.204 432.916 315.178V360.611C432.916 377.585 446.676 391.345 463.65 391.345H509.083C526.057 391.345 539.817 377.585 539.817 360.611V315.178C539.817 298.204 526.057 284.444 509.083 284.444Z" stroke="url(#paint9_linear_34913_123)" stroke-width="0.890845"/>
<path d="M591.931 314.287H529.572C516.288 314.287 505.52 325.056 505.52 338.34C505.52 351.624 516.288 362.393 529.572 362.393H591.931C605.215 362.393 615.984 351.624 615.984 338.34C615.984 325.056 605.215 314.287 591.931 314.287Z" fill="#3B3B3D"/>
<path d="M591.931 314.732H529.572C516.534 314.732 505.965 325.302 505.965 338.34C505.965 351.378 516.534 361.947 529.572 361.947H591.931C604.969 361.947 615.539 351.378 615.539 338.34C615.539 325.302 604.969 314.732 591.931 314.732Z" stroke="url(#paint10_linear_34913_123)" stroke-opacity="0.4" stroke-width="0.890845"/>
<path d="M532.945 342.794V341.511H534.201V334.723H532.945V333.44H536.687C537.934 333.44 538.887 333.756 539.546 334.389C540.215 335.021 540.549 335.975 540.549 337.249V338.999C540.549 340.273 540.215 341.226 539.546 341.859C538.887 342.482 537.934 342.794 536.687 342.794H532.945ZM535.658 341.485H536.7C537.511 341.485 538.112 341.28 538.504 340.87C538.896 340.46 539.092 339.85 539.092 339.039V337.195C539.092 336.376 538.896 335.765 538.504 335.364C538.112 334.964 537.511 334.763 536.7 334.763H535.658V341.485ZM545.24 342.981C544.572 342.981 543.988 342.843 543.489 342.567C542.99 342.282 542.599 341.885 542.313 341.378C542.037 340.861 541.899 340.264 541.899 339.587V339.427C541.899 338.741 542.037 338.144 542.313 337.636C542.59 337.119 542.973 336.723 543.463 336.447C543.961 336.162 544.536 336.019 545.186 336.019C545.819 336.019 546.371 336.162 546.843 336.447C547.324 336.723 547.699 337.11 547.966 337.609C548.233 338.108 548.367 338.692 548.367 339.36V339.881H543.302C543.32 340.46 543.512 340.923 543.877 341.271C544.251 341.609 544.714 341.778 545.267 341.778C545.783 341.778 546.171 341.663 546.429 341.431C546.696 341.199 546.901 340.932 547.044 340.629L548.18 341.217C548.055 341.467 547.872 341.729 547.632 342.006C547.4 342.282 547.093 342.513 546.71 342.701C546.327 342.888 545.837 342.981 545.24 342.981ZM543.316 338.825H546.964C546.928 338.326 546.75 337.939 546.429 337.663C546.108 337.378 545.69 337.235 545.173 337.235C544.656 337.235 544.233 337.378 543.904 337.663C543.583 337.939 543.387 338.326 543.316 338.825ZM552.722 342.981C551.885 342.981 551.19 342.794 550.637 342.42C550.085 342.046 549.747 341.48 549.622 340.723L550.905 340.415C550.976 340.781 551.096 341.07 551.266 341.284C551.435 341.498 551.644 341.649 551.894 341.738C552.152 341.827 552.428 341.872 552.722 341.872C553.159 341.872 553.493 341.787 553.724 341.618C553.965 341.449 554.085 341.231 554.085 340.963C554.085 340.696 553.974 340.5 553.751 340.375C553.528 340.251 553.199 340.148 552.762 340.068L552.308 339.988C551.891 339.916 551.484 339.8 551.092 339.64C550.753 339.509 550.454 339.292 550.223 339.012C550.009 338.745 549.903 338.402 549.903 337.984C549.903 337.36 550.134 336.879 550.597 336.54C551.061 336.193 551.675 336.019 552.441 336.019C553.181 336.019 553.787 336.188 554.259 336.527C554.74 336.857 555.052 337.306 555.194 337.877L553.911 338.237C553.831 337.837 553.662 337.556 553.404 337.396C553.145 337.226 552.825 337.142 552.441 337.142C552.067 337.142 551.773 337.213 551.56 337.355C551.459 337.413 551.376 337.497 551.32 337.598C551.263 337.7 551.235 337.814 551.239 337.93C551.239 338.197 551.341 338.393 551.546 338.518C551.76 338.643 552.045 338.736 552.401 338.799L552.869 338.879C553.341 338.959 553.773 339.07 554.165 339.213C554.557 339.355 554.865 339.56 555.087 339.828C555.319 340.095 555.435 340.451 555.435 340.897C555.435 341.556 555.19 342.068 554.7 342.433C554.21 342.799 553.551 342.981 552.722 342.981ZM557.044 342.794V336.206H558.42V342.794H557.044ZM557.738 335.311C557.487 335.317 557.243 335.226 557.057 335.057C556.879 334.879 556.79 334.652 556.79 334.376C556.79 334.099 556.879 333.877 557.057 333.707C557.244 333.529 557.471 333.44 557.738 333.44C558.015 333.44 558.242 333.529 558.42 333.707C558.598 333.877 558.687 334.099 558.687 334.376C558.687 334.652 558.598 334.879 558.42 335.057C558.242 335.226 558.015 335.311 557.738 335.311ZM560.142 339.534V339.333C560.142 338.638 560.28 338.046 560.556 337.556C560.841 337.066 561.215 336.687 561.679 336.42C562.142 336.153 562.65 336.019 563.202 336.019C563.843 336.019 564.333 336.139 564.672 336.38C565.019 336.62 565.273 336.879 565.434 337.155H565.647V336.206H566.984V344.144C566.984 344.545 566.863 344.865 566.623 345.106C566.391 345.346 566.07 345.467 565.661 345.467H561.224V344.264H565.233C565.491 344.264 565.621 344.13 565.621 343.863V341.765H565.407C565.309 341.925 565.171 342.09 564.993 342.26C564.814 342.429 564.578 342.567 564.284 342.674C563.999 342.781 563.638 342.834 563.202 342.834C562.65 342.834 562.137 342.705 561.665 342.447C561.202 342.179 560.832 341.801 560.556 341.311C560.28 340.812 560.142 340.22 560.142 339.534ZM563.576 341.632C564.173 341.632 564.663 341.444 565.046 341.07C565.438 340.687 565.634 340.162 565.634 339.493V339.373C565.634 338.687 565.442 338.162 565.059 337.796C564.676 337.422 564.182 337.235 563.576 337.235C562.988 337.235 562.498 337.422 562.106 337.796C561.723 338.162 561.532 338.687 561.532 339.373V339.493C561.532 340.162 561.723 340.687 562.106 341.07C562.498 341.444 562.988 341.632 563.576 341.632ZM569.01 342.794V336.206H570.36V337.195H570.574C570.698 336.928 570.921 336.678 571.242 336.447C571.563 336.215 572.039 336.099 572.672 336.099C573.171 336.099 573.611 336.211 573.995 336.433C574.387 336.656 574.694 336.972 574.917 337.382C575.139 337.783 575.251 338.269 575.251 338.839V342.794H573.874V338.946C573.874 338.375 573.732 337.957 573.447 337.69C573.162 337.413 572.77 337.275 572.271 337.275C571.701 337.275 571.242 337.462 570.894 337.837C570.556 338.211 570.387 338.754 570.387 339.467V342.794H569.01ZM580.251 342.981C579.583 342.981 578.999 342.843 578.5 342.567C578.002 342.282 577.61 341.885 577.325 341.378C577.048 340.861 576.91 340.264 576.91 339.587V339.427C576.91 338.741 577.048 338.144 577.325 337.636C577.601 337.119 577.984 336.723 578.474 336.447C578.973 336.162 579.547 336.019 580.197 336.019C580.83 336.019 581.382 336.162 581.854 336.447C582.336 336.723 582.71 337.11 582.977 337.609C583.244 338.108 583.378 338.692 583.378 339.36V339.881H578.313C578.331 340.46 578.523 340.923 578.888 341.271C579.262 341.609 579.725 341.778 580.278 341.778C580.794 341.778 581.182 341.663 581.44 341.431C581.708 341.199 581.912 340.932 582.055 340.629L583.191 341.217C583.066 341.467 582.883 341.729 582.643 342.006C582.411 342.282 582.104 342.513 581.721 342.701C581.338 342.888 580.848 342.981 580.251 342.981ZM578.327 338.825H581.975C581.939 338.326 581.761 337.939 581.44 337.663C581.12 337.378 580.701 337.235 580.184 337.235C579.667 337.235 579.244 337.378 578.915 337.663C578.594 337.939 578.398 338.326 578.327 338.825ZM585.035 342.794V336.206H586.384V336.981H586.598C586.705 336.705 586.874 336.505 587.106 336.38C587.347 336.246 587.641 336.18 587.988 336.18H588.776V337.422H587.934C587.489 337.422 587.124 337.547 586.839 337.796C586.554 338.037 586.411 338.411 586.411 338.919V342.794H585.035Z" fill="white"/>
<path d="M498.103 309.045C498.039 308.75 498.051 308.444 498.138 308.155C498.225 307.866 498.384 307.604 498.6 307.393C498.816 307.183 499.081 307.03 499.372 306.95C499.663 306.87 499.97 306.866 500.263 306.937L513.353 310.102C514.254 310.319 514.351 311.563 513.495 311.917C508.645 313.926 504.806 317.908 502.92 322.807C502.574 323.707 501.26 323.635 501.056 322.692L498.103 309.045Z" fill="#51ABFF" stroke="#222943" stroke-width="0.890845" stroke-linecap="round" stroke-linejoin="round"/>
<path d="M388.819 283.998H263.21C238.61 283.998 218.668 303.941 218.668 328.541V454.15C218.668 478.75 238.61 498.692 263.21 498.692H388.819C413.419 498.692 433.362 478.75 433.362 454.15V328.541C433.362 303.941 413.419 283.998 388.819 283.998Z" fill="#3B3F3F"/>
<path d="M388.819 284.444H263.21C238.856 284.444 219.113 304.187 219.113 328.541V454.15C219.113 478.504 238.856 498.246 263.21 498.246H388.819C413.173 498.246 432.916 478.504 432.916 454.15V328.541C432.916 304.187 413.173 284.444 388.819 284.444Z" stroke="url(#paint11_linear_34913_123)" stroke-opacity="0.4" stroke-width="0.890845"/>
<g filter="url(#filter0_d_34913_123)">
<mask id="mask1_34913_123" style="mask-type:luminance" maskUnits="userSpaceOnUse" x="352" y="341" width="44" height="51">
<path d="M375.765 341.572C388.847 354.885 396.105 372.849 395.942 391.514L363.57 391.231C363.658 381.152 359.738 371.452 352.674 364.263L375.765 341.572Z" fill="white"/>
</mask>
<g mask="url(#mask1_34913_123)">
<path d="M375.765 341.572C388.847 354.885 396.105 372.849 395.942 391.514L363.57 391.231C363.658 381.152 359.738 371.452 352.674 364.263L375.765 341.572Z" stroke="url(#paint12_linear_34913_123)" stroke-width="62.3591"/>
</g>
<mask id="mask2_34913_123" style="mask-type:luminance" maskUnits="userSpaceOnUse" x="352" y="391" width="44" height="51">
<path d="M395.942 391.513C395.779 410.178 388.209 428.013 374.896 441.096L352.205 418.005C355.765 414.508 358.601 410.343 360.551 405.749C362.5 401.155 363.526 396.222 363.57 391.231L395.942 391.513Z" fill="white"/>
</mask>
<g mask="url(#mask2_34913_123)">
<path d="M395.942 391.513C395.779 410.178 388.209 428.013 374.896 441.096L352.205 418.005C355.765 414.508 358.601 410.343 360.551 405.749C362.5 401.155 363.526 396.222 363.57 391.231L395.942 391.513Z" stroke="url(#paint13_linear_34913_123)" stroke-width="62.3591"/>
</g>
<mask id="mask3_34913_123" style="mask-type:luminance" maskUnits="userSpaceOnUse" x="324" y="418" width="51" height="44">
<path d="M374.897 441.096C361.584 454.179 343.619 461.437 324.955 461.274L325.237 428.901C335.316 428.989 345.017 425.07 352.206 418.005L374.897 441.096Z" fill="white"/>
</mask>
<g mask="url(#mask3_34913_123)">
<path d="M374.897 441.096C361.584 454.178 343.619 461.437 324.955 461.274L325.237 428.901C335.316 428.989 345.017 425.07 352.206 418.005L374.897 441.096Z" stroke="url(#paint14_linear_34913_123)" stroke-width="62.3591"/>
</g>
<mask id="mask4_34913_123" style="mask-type:luminance" maskUnits="userSpaceOnUse" x="275" y="417" width="51" height="45">
<path d="M324.954 461.274C306.289 461.111 288.454 453.54 275.371 440.228L298.462 417.537C301.96 421.097 306.125 423.932 310.719 425.882C315.313 427.832 320.246 428.858 325.236 428.901L324.954 461.274Z" fill="white"/>
</mask>
<g mask="url(#mask4_34913_123)">
<path d="M324.954 461.274C306.289 461.111 288.454 453.54 275.371 440.228L298.462 417.537C301.96 421.097 306.125 423.932 310.719 425.882C315.313 427.832 320.246 428.858 325.236 428.901L324.954 461.274Z" stroke="url(#paint15_linear_34913_123)" stroke-width="62.3591"/>
</g>
<mask id="mask5_34913_123" style="mask-type:luminance" maskUnits="userSpaceOnUse" x="255" y="390" width="44" height="51">
<path d="M275.372 440.228C262.289 426.915 255.031 408.95 255.194 390.286L287.567 390.568C287.479 400.647 291.398 410.348 298.462 417.537L275.372 440.228Z" fill="white"/>
</mask>
<g mask="url(#mask5_34913_123)">
<path d="M275.372 440.228C262.289 426.915 255.031 408.95 255.194 390.286L287.567 390.568C287.479 400.647 291.398 410.348 298.462 417.537L275.372 440.228Z" stroke="url(#paint16_linear_34913_123)" stroke-width="62.3591"/>
</g>
<mask id="mask6_34913_123" style="mask-type:luminance" maskUnits="userSpaceOnUse" x="255" y="340" width="44" height="51">
<path d="M255.193 390.286C255.356 371.621 262.927 353.786 276.24 340.703L298.93 363.794C295.371 367.292 292.535 371.457 290.585 376.051C288.635 380.645 287.609 385.578 287.566 390.568L255.193 390.286Z" fill="white"/>
</mask>
<g mask="url(#mask6_34913_123)">
<path d="M255.193 390.286C255.356 371.621 262.927 353.786 276.24 340.703L298.93 363.794C295.371 367.292 292.535 371.457 290.585 376.051C288.635 380.645 287.609 385.578 287.566 390.568L255.193 390.286Z" stroke="url(#paint17_linear_34913_123)" stroke-width="62.3591"/>
</g>
<mask id="mask7_34913_123" style="mask-type:luminance" maskUnits="userSpaceOnUse" x="276" y="320" width="51" height="44">
<path d="M276.24 340.703C289.553 327.621 307.518 320.363 326.182 320.526L325.9 352.898C315.821 352.81 306.12 356.729 298.931 363.794L276.24 340.703Z" fill="white"/>
</mask>
<g mask="url(#mask7_34913_123)">
<path d="M276.24 340.703C289.553 327.621 307.518 320.363 326.182 320.526L325.9 352.898C315.821 352.81 306.12 356.729 298.931 363.794L276.24 340.703Z" stroke="url(#paint18_linear_34913_123)" stroke-width="62.3591"/>
</g>
<mask id="mask8_34913_123" style="mask-type:luminance" maskUnits="userSpaceOnUse" x="325" y="320" width="51" height="45">
<path d="M326.183 320.526C344.847 320.689 362.683 328.259 375.765 341.572L352.675 364.263C349.177 360.703 345.012 357.867 340.418 355.917C335.824 353.967 330.891 352.941 325.9 352.898L326.183 320.526Z" fill="white"/>
</mask>
<g mask="url(#mask8_34913_123)">
<path d="M326.183 320.526C344.847 320.689 362.683 328.259 375.765 341.572L352.675 364.263C349.177 360.703 345.012 357.867 340.418 355.917C335.824 353.967 330.891 352.941 325.9 352.898L326.183 320.526Z" stroke="url(#paint19_linear_34913_123)" stroke-width="62.3591"/>
</g>
</g>
<mask id="mask9_34913_123" style="mask-type:alpha" maskUnits="userSpaceOnUse" x="325" y="-24" width="2" height="292">
<path opacity="0.1" d="M326.014 -23.3433V267.963" stroke="url(#paint20_linear_34913_123)" stroke-width="0.890845"/>
</mask>
<g mask="url(#mask9_34913_123)">
<path d="M313.986 -30.47H339.821V60.3962H313.986V-30.47ZM313.986 187.787H339.821V283.998H313.986V187.787Z" fill="#D9D9D9"/>
</g>
<mask id="mask10_34913_123" style="mask-type:alpha" maskUnits="userSpaceOnUse" x="432" y="-24" width="2" height="292">
<path opacity="0.1" d="M432.916 -23.3433V267.963" stroke="url(#paint21_linear_34913_123)" stroke-width="0.890845"/>
</mask>
<g mask="url(#mask10_34913_123)">
<path d="M421.781 -30.47H444.052V69.3047H421.781V-30.47ZM421.781 178.879H444.052V278.653H421.781V178.879Z" fill="#D9D9D9"/>
</g>
<mask id="mask11_34913_123" style="mask-type:alpha" maskUnits="userSpaceOnUse" x="6" y="70" width="633" height="2">
<path opacity="0.1" d="M638.256 70.6409H6.64648" stroke="url(#paint22_linear_34913_123)" stroke-width="0.890845"/>
</mask>
<g mask="url(#mask11_34913_123)">
<path d="M-11.1709 60.3961H315.769V85.3398H-11.1709V60.3961ZM550.061 60.3961H640.037V85.3398H550.061V60.3961Z" fill="#D9D9D9"/>
</g>
<mask id="mask12_34913_123" style="mask-type:alpha" maskUnits="userSpaceOnUse" x="6" y="177" width="633" height="1">
<path opacity="0.1" d="M638.256 177.542H6.64648" stroke="url(#paint23_linear_34913_123)" stroke-width="0.890845"/>
</mask>
<g mask="url(#mask12_34913_123)">
<path d="M-9.38867 167.298H315.77V187.787H-9.38867V167.298ZM550.062 167.298H655.182V187.787H550.062V167.298Z" fill="#D9D9D9"/>
</g>
<path d="M128.691 122.755H97.5118C84.2278 122.755 73.459 133.524 73.459 146.808V367.738C73.459 381.022 84.2278 391.791 97.5118 391.791H128.691C141.975 391.791 152.744 381.022 152.744 367.738V146.808C152.744 133.524 141.975 122.755 128.691 122.755Z" fill="#38393A"/>
<path d="M128.691 123.201H97.5117C84.4737 123.201 73.9043 133.77 73.9043 146.808V367.738C73.9043 380.776 84.4737 391.345 97.5117 391.345H128.691C141.729 391.345 152.299 380.776 152.299 367.738V146.808C152.299 133.77 141.729 123.201 128.691 123.201Z" stroke="url(#paint24_linear_34913_123)" stroke-opacity="0.4" stroke-width="0.890845"/>
<g filter="url(#filter1_d_34913_123)">
<path d="M126.019 198.477H100.185C91.3286 198.477 84.1494 205.656 84.1494 214.512V239.456C84.1494 248.312 91.3286 255.491 100.185 255.491H126.019C134.875 255.491 142.054 248.312 142.054 239.456V214.512C142.054 205.656 134.875 198.477 126.019 198.477Z" fill="white"/>
</g>
<path d="M104.799 342.276H122.293M110.631 342.276V355.105M111.15 169.701C110.822 169.373 110.637 168.928 110.637 168.464C110.637 168 110.822 167.555 111.15 167.227C111.478 166.898 111.923 166.714 112.387 166.714C112.851 166.714 113.296 166.898 113.624 167.227C113.952 167.555 114.137 168 114.137 168.464C114.137 168.928 113.952 169.373 113.624 169.701C113.296 170.029 112.851 170.213 112.387 170.213C111.923 170.213 111.478 170.029 111.15 169.701ZM111.15 169.701L104.806 176.045M112.97 158.551L122.299 167.88M120.544 337.611H106.548C106.319 337.611 106.091 337.656 105.879 337.744C105.667 337.832 105.474 337.961 105.311 338.123C105.149 338.285 105.02 338.478 104.932 338.69C104.844 338.903 104.799 339.13 104.799 339.36V353.356C104.799 354.322 105.582 355.106 106.548 355.106H120.544C121.008 355.106 121.453 354.921 121.781 354.593C122.109 354.265 122.293 353.82 122.293 353.356V339.36C122.293 339.13 122.248 338.903 122.16 338.69C122.072 338.478 121.943 338.285 121.781 338.123C121.618 337.961 121.425 337.832 121.213 337.744C121.001 337.656 120.773 337.611 120.544 337.611Z" stroke="white" stroke-width="1.33627" stroke-linecap="round" stroke-linejoin="round"/>
<path d="M119.967 165.549L117.635 173.713L104.807 176.045L107.139 163.217L115.302 160.884" stroke="white" stroke-width="1.33627" stroke-linecap="round" stroke-linejoin="round"/>
<path d="M113.547 218.238V235.731M110.179 235.731H116.907M120.944 220.929L119.598 218.238H107.488L106.143 220.929" stroke="#222943" stroke-width="1.33627" stroke-linecap="round" stroke-linejoin="round"/>
<path d="M115.934 287.466L121.627 281.821C121.839 281.609 122.007 281.358 122.122 281.081C122.237 280.804 122.296 280.507 122.296 280.207C122.296 279.907 122.237 279.611 122.122 279.334C122.007 279.057 121.839 278.805 121.627 278.593C121.415 278.381 121.164 278.213 120.887 278.098C120.61 277.983 120.313 277.924 120.013 277.924C119.714 277.924 119.417 277.983 119.14 278.098C118.863 278.213 118.611 278.381 118.399 278.593L112.753 284.286M106.693 287.865C105.069 289.455 104.799 295.418 104.799 295.418C104.799 295.418 110.752 294.889 112.378 293.431C112.748 293.067 113.041 292.634 113.242 292.156C113.442 291.679 113.545 291.166 113.545 290.648C113.545 290.129 113.442 289.616 113.242 289.139C113.041 288.661 112.748 288.228 112.378 287.865C111.653 287.124 110.667 286.695 109.63 286.671C108.594 286.646 107.589 287.027 106.829 287.733C106.782 287.775 106.737 287.82 106.693 287.865Z" stroke="white" stroke-width="1.33627" stroke-linecap="round" stroke-linejoin="round"/>
<defs>
<filter id="filter0_d_34913_123" x="231.139" y="304.488" width="188.86" height="188.859" filterUnits="userSpaceOnUse" color-interpolation-filters="sRGB">
<feFlood flood-opacity="0" result="BackgroundImageFix"/>
<feColorMatrix in="SourceAlpha" type="matrix" values="0 0 0 0 0 0 0 0 0 0 0 0 0 0 0 0 0 0 127 0" result="hardAlpha"/>
<feOffset dy="8.0176"/>
<feGaussianBlur stdDeviation="12.0264"/>
<feComposite in2="hardAlpha" operator="out"/>
<feColorMatrix type="matrix" values="0 0 0 0 0 0 0 0 0 0 0 0 0 0 0 0 0 0 0.13 0"/>
<feBlend mode="normal" in2="BackgroundImageFix" result="effect1_dropShadow_34913_123"/>
<feBlend mode="normal" in="SourceGraphic" in2="effect1_dropShadow_34913_123" result="shape"/>
</filter>
<filter id="filter1_d_34913_123" x="71.6776" y="189.569" width="82.8489" height="81.9577" filterUnits="userSpaceOnUse" color-interpolation-filters="sRGB">
<feFlood flood-opacity="0" result="BackgroundImageFix"/>
<feColorMatrix in="SourceAlpha" type="matrix" values="0 0 0 0 0 0 0 0 0 0 0 0 0 0 0 0 0 0 127 0" result="hardAlpha"/>
<feOffset dy="3.56338"/>
<feGaussianBlur stdDeviation="6.23591"/>
<feComposite in2="hardAlpha" operator="out"/>
<feColorMatrix type="matrix" values="0 0 0 0 0 0 0 0 0 0 0 0 0 0 0 0 0 0 0.05 0"/>
<feBlend mode="normal" in2="BackgroundImageFix" result="effect1_dropShadow_34913_123"/>
<feBlend mode="normal" in="SourceGraphic" in2="effect1_dropShadow_34913_123" result="shape"/>
</filter>
<linearGradient id="paint0_linear_34913_123" x1="nan" y1="nan" x2="nan" y2="nan" gradientUnits="userSpaceOnUse">
<stop stop-color="#F3F4FA" stop-opacity="0"/>
<stop offset="0.295" stop-color="#F3F4FA"/>
<stop offset="0.695" stop-color="#F3F4FA"/>
<stop offset="1" stop-color="#F3F4FA" stop-opacity="0.1"/>
</linearGradient>
<linearGradient id="paint1_linear_34913_123" x1="nan" y1="nan" x2="nan" y2="nan" gradientUnits="userSpaceOnUse">
<stop stop-color="#F3F4FA" stop-opacity="0"/>
<stop offset="0.295" stop-color="#F3F4FA"/>
<stop offset="0.695" stop-color="#F3F4FA"/>
<stop offset="1" stop-color="#F3F4FA" stop-opacity="0.1"/>
</linearGradient>
<linearGradient id="paint2_linear_34913_123" x1="nan" y1="nan" x2="nan" y2="nan" gradientUnits="userSpaceOnUse">
<stop stop-color="#F3F4FA" stop-opacity="0"/>
<stop offset="0.44" stop-color="#F3F4FA"/>
<stop offset="0.59" stop-color="#F3F4FA"/>
<stop offset="1" stop-color="#F3F4FA" stop-opacity="0.1"/>
</linearGradient>
<linearGradient id="paint3_linear_34913_123" x1="nan" y1="nan" x2="nan" y2="nan" gradientUnits="userSpaceOnUse">
<stop stop-color="#F3F4FA" stop-opacity="0"/>
<stop offset="0.161" stop-color="#F3F4FA"/>
<stop offset="0.836" stop-color="#F3F4FA"/>
<stop offset="1" stop-color="#F3F4FA" stop-opacity="0.1"/>
</linearGradient>
<linearGradient id="paint4_linear_34913_123" x1="335.367" y1="70.1955" x2="528.681" y2="70.1955" gradientUnits="userSpaceOnUse">
<stop stop-color="#27292A"/>
<stop offset="1" stop-color="#242527"/>
</linearGradient>
<linearGradient id="paint5_linear_34913_123" x1="nan" y1="nan" x2="nan" y2="nan" gradientUnits="userSpaceOnUse">
<stop stop-color="#F3F4FA" stop-opacity="0"/>
<stop offset="0.161" stop-color="#F3F4FA"/>
<stop offset="0.836" stop-color="#F3F4FA"/>
<stop offset="1" stop-color="#F3F4FA" stop-opacity="0.1"/>
</linearGradient>
<linearGradient id="paint6_linear_34913_123" x1="111.766" y1="439.451" x2="219.558" y2="439.451" gradientUnits="userSpaceOnUse">
<stop stop-color="white"/>
<stop offset="0.71" stop-color="white" stop-opacity="0.05"/>
<stop offset="1" stop-color="white" stop-opacity="0"/>
</linearGradient>
<linearGradient id="paint7_linear_34913_123" x1="336.258" y1="177.988" x2="528.68" y2="177.988" gradientUnits="userSpaceOnUse">
<stop stop-color="#292A2D"/>
<stop offset="1" stop-color="#262728"/>
</linearGradient>
<linearGradient id="paint8_linear_34913_123" x1="538.476" y1="605.593" x2="538.476" y2="-23.3433" gradientUnits="userSpaceOnUse">
<stop stop-color="#F3F4FA" stop-opacity="0"/>
<stop offset="0.161" stop-color="#F3F4FA"/>
<stop offset="0.836" stop-color="#F3F4FA"/>
<stop offset="1" stop-color="#F3F4FA" stop-opacity="0.1"/>
</linearGradient>
<linearGradient id="paint9_linear_34913_123" x1="540.263" y1="331.213" x2="432.471" y2="331.213" gradientUnits="userSpaceOnUse">
<stop stop-color="white"/>
<stop offset="0.73" stop-color="white" stop-opacity="0.05"/>
<stop offset="1" stop-color="white" stop-opacity="0"/>
</linearGradient>
<linearGradient id="paint10_linear_34913_123" x1="560.752" y1="314.287" x2="560.752" y2="362.393" gradientUnits="userSpaceOnUse">
<stop stop-color="white"/>
<stop offset="1" stop-color="white" stop-opacity="0"/>
</linearGradient>
<linearGradient id="paint11_linear_34913_123" x1="326.015" y1="283.998" x2="326.015" y2="498.692" gradientUnits="userSpaceOnUse">
<stop stop-color="white"/>
<stop offset="1" stop-color="white" stop-opacity="0"/>
</linearGradient>
<linearGradient id="paint12_linear_34913_123" x1="390.154" y1="363.729" x2="361.202" y2="376.646" gradientUnits="userSpaceOnUse">
<stop stop-color="#F04249"/>
<stop offset="1" stop-color="#F04249"/>
</linearGradient>
<linearGradient id="paint13_linear_34913_123" x1="390.154" y1="418.07" x2="360.756" y2="405.599" gradientUnits="userSpaceOnUse">
<stop stop-color="#F3683F"/>
<stop offset="1" stop-color="#F3683F"/>
</linearGradient>
<linearGradient id="paint14_linear_34913_123" x1="352.74" y1="455.486" x2="339.822" y2="426.088" gradientUnits="userSpaceOnUse">
<stop stop-color="#F89E30"/>
<stop offset="1" stop-color="#F89E30"/>
</linearGradient>
<linearGradient id="paint15_linear_34913_123" x1="299.288" y1="456.377" x2="311.314" y2="426.088" gradientUnits="userSpaceOnUse">
<stop stop-color="#FFF214"/>
</linearGradient>
<linearGradient id="paint16_linear_34913_123" x1="289.934" y1="405.599" x2="260.091" y2="418.07" gradientUnits="userSpaceOnUse">
<stop stop-color="#06B75C"/>
<stop offset="1" stop-color="#06B75C"/>
</linearGradient>
<linearGradient id="paint17_linear_34913_123" x1="290.379" y1="375.755" x2="260.09" y2="363.729" gradientUnits="userSpaceOnUse">
<stop stop-color="#058DE6"/>
<stop offset="1" stop-color="#058DE6"/>
</linearGradient>
<linearGradient id="paint18_linear_34913_123" x1="300.624" y1="324.977" x2="311.76" y2="355.266" gradientUnits="userSpaceOnUse">
<stop stop-color="#7333A3"/>
<stop offset="1" stop-color="#7333A3"/>
</linearGradient>
<linearGradient id="paint19_linear_34913_123" x1="352.74" y1="325.868" x2="340.713" y2="356.157" gradientUnits="userSpaceOnUse">
<stop stop-color="#BF2674"/>
<stop offset="1" stop-color="#BF2674"/>
</linearGradient>
<linearGradient id="paint20_linear_34913_123" x1="nan" y1="nan" x2="nan" y2="nan" gradientUnits="userSpaceOnUse">
<stop stop-color="#F3F4FA" stop-opacity="0"/>
<stop offset="0.295" stop-color="#F3F4FA"/>
<stop offset="0.695" stop-color="#F3F4FA"/>
<stop offset="1" stop-color="#F3F4FA" stop-opacity="0.1"/>
</linearGradient>
<linearGradient id="paint21_linear_34913_123" x1="nan" y1="nan" x2="nan" y2="nan" gradientUnits="userSpaceOnUse">
<stop stop-color="#F3F4FA" stop-opacity="0"/>
<stop offset="0.295" stop-color="#F3F4FA"/>
<stop offset="0.695" stop-color="#F3F4FA"/>
<stop offset="1" stop-color="#F3F4FA" stop-opacity="0.1"/>
</linearGradient>
<linearGradient id="paint22_linear_34913_123" x1="nan" y1="nan" x2="nan" y2="nan" gradientUnits="userSpaceOnUse">
<stop stop-color="#F3F4FA" stop-opacity="0"/>
<stop offset="0.161" stop-color="#F3F4FA"/>
<stop offset="0.836" stop-color="#F3F4FA"/>
<stop offset="1" stop-color="#F3F4FA" stop-opacity="0.1"/>
</linearGradient>
<linearGradient id="paint23_linear_34913_123" x1="nan" y1="nan" x2="nan" y2="nan" gradientUnits="userSpaceOnUse">
<stop stop-color="#F3F4FA" stop-opacity="0"/>
<stop offset="0.161" stop-color="#F3F4FA"/>
<stop offset="0.836" stop-color="#F3F4FA"/>
<stop offset="1" stop-color="#F3F4FA" stop-opacity="0.1"/>
</linearGradient>
<linearGradient id="paint24_linear_34913_123" x1="113.101" y1="122.755" x2="113.101" y2="391.791" gradientUnits="userSpaceOnUse">
<stop stop-color="white"/>
<stop offset="1" stop-color="white" stop-opacity="0"/>
</linearGradient>
</defs>
</svg>
